<?xml version="1.0" standalone="no"?>
<!DOCTYPE svg PUBLIC "-//W3C//DTD SVG 20010904//EN"
 "http://www.w3.org/TR/2001/REC-SVG-20010904/DTD/svg10.dtd">
<svg version="1.0" xmlns="http://www.w3.org/2000/svg"
 width="16.000000pt" height="16.000000pt" viewBox="0 0 16.000000 16.000000"
 preserveAspectRatio="xMidYMid meet">
<metadata>
Created by potrace 1.11, written by Peter Selinger 2001-2013
</metadata>
<g transform="translate(0.000000,16.000000) scale(0.004000,-0.004000)"
fill="#000000" stroke="none">
<path d="M0 2000 l0 -2000 2000 0 2000 0 0 2000 0 2000 -2000 0 -2000 0 0
-2000z m2345 1149 c324 -39 538 -249 553 -544 10 -217 -84 -393 -265 -495 -60
-34 -77 -50 -51 -50 7 0 55 -21 107 -47 227 -113 334 -300 318 -558 -18 -288
-198 -499 -490 -574 -134 -35 -293 -43 -792 -39 l-470 3 -55 31 c-45 26 -60
42 -85 89 l-30 59 -3 962 -2 962 21 59 c13 32 37 72 55 90 65 61 69 61 609 62
293 1 526 -3 580 -10z"/>
<path d="M1560 2506 l0 -296 269 0 c359 0 447 17 528 102 53 55 77 121 77 213
1 64 -4 88 -21 122 -33 61 -85 98 -172 124 -70 21 -101 23 -378 26 l-303 5 0
-296z"/>
<path d="M1560 1535 l0 -335 313 0 c331 0 404 8 486 49 108 56 161 138 169
267 11 191 -79 291 -308 340 -47 10 -147 14 -362 14 l-298 0 0 -335z"/>
</g>
</svg>
