<svg width="144" height="144" id="Layer_1" data-name="Layer 1" xmlns="http://www.w3.org/2000/svg" viewBox="0 0 143.89 144.1"><defs><style>.cls-1,.cls-2{fill:none;stroke-miterlimit:10;}.cls-1{stroke:#c5c5c5;stroke-width:0.25px;}.cls-2{stroke:#ddd;stroke-width:0.1px;}</style></defs><title>Artboard 1</title><line class="cls-1" x1="67.44" y1="144.05" x2="67.44" y2="-0.05"/><line class="cls-2" x1="76.45" y1="0.05" x2="76.45" y2="144.16"/><line class="cls-2" x1="85.45" y1="0.05" x2="85.45" y2="144.16"/><line class="cls-2" x1="94.46" y1="0.05" x2="94.46" y2="144.16"/><line class="cls-2" x1="103.47" y1="0.05" x2="103.47" y2="144.16"/><line class="cls-2" x1="112.47" y1="0.05" x2="112.47" y2="144.16"/><line class="cls-2" x1="121.48" y1="0.05" x2="121.48" y2="144.16"/><line class="cls-2" x1="130.49" y1="0.05" x2="130.49" y2="144.16"/><line class="cls-2" x1="139.49" y1="0.05" x2="139.49" y2="144.16"/><line class="cls-2" x1="58.44" y1="0.05" x2="58.44" y2="144.16"/><line class="cls-2" x1="49.43" y1="0.05" x2="49.43" y2="144.16"/><line class="cls-2" x1="40.42" y1="0.05" x2="40.42" y2="144.16"/><line class="cls-2" x1="31.42" y1="0.05" x2="31.42" y2="144.16"/><line class="cls-2" x1="22.41" y1="0.05" x2="22.41" y2="144.16"/><line class="cls-2" x1="13.4" y1="0.05" x2="13.4" y2="144.16"/><line class="cls-2" x1="4.4" y1="0.05" x2="4.4" y2="144.16"/><line class="cls-1" x1="143.94" y1="76.55" x2="-0.16" y2="76.55"/><line class="cls-2" x1="-0.05" y1="67.55" x2="144.05" y2="67.55"/><line class="cls-2" x1="-0.05" y1="58.54" x2="144.05" y2="58.54"/><line class="cls-2" x1="-0.05" y1="49.54" x2="144.05" y2="49.54"/><line class="cls-2" x1="-0.05" y1="40.53" x2="144.05" y2="40.53"/><line class="cls-2" x1="-0.05" y1="31.52" x2="144.05" y2="31.52"/><line class="cls-2" x1="-0.05" y1="22.52" x2="144.05" y2="22.52"/><line class="cls-2" x1="-0.05" y1="13.51" x2="144.05" y2="13.51"/><line class="cls-2" x1="-0.05" y1="4.5" x2="144.05" y2="4.5"/><line class="cls-2" x1="-0.05" y1="85.56" x2="144.05" y2="85.56"/><line class="cls-2" x1="-0.05" y1="94.57" x2="144.05" y2="94.57"/><line class="cls-2" x1="-0.05" y1="103.57" x2="144.05" y2="103.57"/><line class="cls-2" x1="-0.05" y1="112.58" x2="144.05" y2="112.58"/><line class="cls-2" x1="-0.05" y1="121.59" x2="144.05" y2="121.59"/><line class="cls-2" x1="-0.05" y1="130.59" x2="144.05" y2="130.59"/><line class="cls-2" x1="-0.05" y1="139.6" x2="144.05" y2="139.6"/></svg>
