<svg width="316" height="198" id="Layer_1" data-name="Layer 1" xmlns="http://www.w3.org/2000/svg" xmlns:xlink="http://www.w3.org/1999/xlink" viewBox="0 0 316 198"><defs><style>.cls-1{fill:none;}.cls-2{fill:#1b152b;}.cls-3{fill:#f9ff00;}.cls-4{fill:#fff;}.cls-5{fill:#cf6f55;}.cls-6{fill:#c06046;}.cls-7{fill:#1f1a47;}.cls-8{fill:#292356;}.cls-9{clip-path:url(#clip-path);}</style><clipPath id="clip-path"><path class="cls-1" d="M167.88,18.91A30.08,30.08,0,0,0,148.76,1.78c3,4.09,5,10.25,6.05,17.13ZM131.64,1.78a30.13,30.13,0,0,0-19.11,17.13h13.06C126.66,12,128.69,5.87,131.64,1.78Zm19.28,17.13C149.16,8.11,145,.52,140.21.52s-9,7.59-10.71,18.39Zm4.78,11.62c0,2.6-.15,5.2-.4,7.74h13.88a29.32,29.32,0,0,0,0-15.48H155.31C155.55,25.33,155.7,27.93,155.7,30.53Zm-44.46,7.74h13.88c-.25-2.54-.4-5.14-.4-7.74s.15-5.2.4-7.74H111.26a29.5,29.5,0,0,0-1,7.74A30.42,30.42,0,0,0,111.24,38.27Zm37.54,21a30.05,30.05,0,0,0,19.1-17.14H154.81C153.76,49,151.73,55.19,148.78,59.28ZM112.54,42.14a30.09,30.09,0,0,0,19.12,17.14c-3-4.09-5-10.25-6-17.14Zm39.29-11.61a76.88,76.88,0,0,0-.4-7.74H129a75.08,75.08,0,0,0,0,15.48h22.42A77,77,0,0,0,151.83,30.53ZM129.5,42.14c1.76,10.81,5.89,18.39,10.71,18.39s8.95-7.58,10.71-18.39Z"/></clipPath></defs><title>sprites</title><g id="LinkedIn"><path id="LinkedIn-2" class="cls-2" d="M25.48,16v6.28H21.84V16.35c0-1.47-.53-2.47-1.84-2.47a2,2,0,0,0-1.87,1.32,2.7,2.7,0,0,0-.12.89V22.2H14.34v-11H18v1.55h0A3.63,3.63,0,0,1,21.32,11C23.69,11,25.48,12.57,25.48,16ZM10.58,6a1.89,1.89,0,1,0-.27,3.78h.27A1.89,1.89,0,1,0,10.85,6ZM8.73,22.21h3.62v-11H8.73Z"/></g><g id="GitHub"><path class="cls-2" d="M24.1,37.14a5.52,5.52,0,0,0,.28-1.71,5,5,0,0,0-.52-2.23,4.43,4.43,0,0,0-1.93.4A10.69,10.69,0,0,0,20,34.84a11.47,11.47,0,0,0-2.86-.33,12.85,12.85,0,0,0-3.15.36,10.59,10.59,0,0,0-1.92-1.26,4.47,4.47,0,0,0-1.94-.4,5,5,0,0,0-.52,2.23,5.64,5.64,0,0,0,.28,1.73,6.05,6.05,0,0,0-1.39,4,7.64,7.64,0,0,0,.63,3.37A4.23,4.23,0,0,0,10,45.7a4.57,4.57,0,0,0,1.24.83,11.69,11.69,0,0,0,1.39.53,9.17,9.17,0,0,0,1.56.31c.57.06,1.07.11,1.51.13s.92,0,1.44,0h1.71a14.68,14.68,0,0,0,1.75-.22,9,9,0,0,0,1.68-.48,5.32,5.32,0,0,0,1.47-.91,4.1,4.1,0,0,0,1.08-1.36,7.76,7.76,0,0,0,.61-3.37A6.07,6.07,0,0,0,24.1,37.14Zm-1.23,7.41A2.83,2.83,0,0,1,22,45.6a3.88,3.88,0,0,1-1.24.61,7.14,7.14,0,0,1-1.43.3c-.5.05-1,.07-1.52.07h-1.7c-.51,0-1,0-1.52-.07a7.14,7.14,0,0,1-1.43-.3A3.88,3.88,0,0,1,12,45.6a2.83,2.83,0,0,1-.83-1.05A3.5,3.5,0,0,1,10.8,43a3.17,3.17,0,0,1,.71-2.09,2.33,2.33,0,0,1,1.9-.86c.67,0,1.34.11,2,.21a11.43,11.43,0,0,0,3.2,0c1.05-.14,1.71-.21,2-.21a2.33,2.33,0,0,1,1.9.86,3.21,3.21,0,0,1,.7,2.08A3.55,3.55,0,0,1,22.87,44.55Z"/><path class="cls-2" d="M14.48,41.38a1,1,0,0,0-1.41-.07.23.23,0,0,1-.07.07,1.93,1.93,0,0,0-.43.78,2.68,2.68,0,0,0,0,1.68,1.89,1.89,0,0,0,.43.77,1,1,0,0,0,1.41.07.23.23,0,0,0,.07-.07,2,2,0,0,0,.44-.77,2.83,2.83,0,0,0,0-1.68A2.08,2.08,0,0,0,14.48,41.38Z"/><path class="cls-2" d="M21,41.38a1,1,0,0,0-1.41-.07l-.07.07a2.08,2.08,0,0,0-.44.78,2.83,2.83,0,0,0,0,1.68,2,2,0,0,0,.44.77,1,1,0,0,0,1.41.07l.07-.07a1.89,1.89,0,0,0,.43-.77,2.68,2.68,0,0,0,0-1.68A1.93,1.93,0,0,0,21,41.38Z"/></g><path class="cls-2" d="M17.57,58.18a1.39,1.39,0,0,0-1.54,0L9.11,63a1.43,1.43,0,0,0-.59,1.13v5.2a1.4,1.4,0,0,0,.62,1.14l7,4.65a1.34,1.34,0,0,0,1.51,0l7.18-4.74a1.36,1.36,0,0,0,.61-1.14v-5.1A1.38,1.38,0,0,0,24.87,63Zm5.36,5.67-2.6,1.74-2.49-1.8V60.23Zm-7-3.58v3.48L13.4,65.53l-2.54-1.7Zm-5.79,5.27,1.65,1.1-1.62,1.12ZM16,73l-5.13-3.45,2.56-1.79L16,69.46Zm-1-6.35,1.67-1.16,1.93,1.28-1.66,1.1ZM17.77,73V69.42l2.56-1.65L23,69.51Zm5.9-5.13-1.75-1.17,1.75-1.17Z"/><path class="cls-2" d="M25.48,87.69a6.85,6.85,0,0,1-2,.55A3.55,3.55,0,0,0,25,86.32a7.12,7.12,0,0,1-2.22.84,3.49,3.49,0,0,0-5.93,3.18A9.92,9.92,0,0,1,9.7,86.69a3.49,3.49,0,0,0,1.08,4.65A3.54,3.54,0,0,1,9.2,90.9h0A3.49,3.49,0,0,0,12,94.32a3.57,3.57,0,0,1-.92.12,3.68,3.68,0,0,1-.66-.06,3.49,3.49,0,0,0,3.25,2.41,7,7,0,0,1-4.32,1.53c-.27,0-.55,0-.83,0A9.89,9.89,0,0,0,23.76,90v-.5A6.85,6.85,0,0,0,25.48,87.69Z"/><g id="LinkedIn-3"><path id="LinkedIn-4" class="cls-3" d="M54.75,16v6.28H51.11V16.35c0-1.47-.53-2.47-1.84-2.47A2,2,0,0,0,47.4,15.2a2.7,2.7,0,0,0-.12.89V22.2H43.65v-11h3.61v1.55h0a3.63,3.63,0,0,1,3.3-1.8C53,11,54.75,12.57,54.75,16ZM39.84,6a1.89,1.89,0,1,0-.27,3.78h.27A1.9,1.9,0,0,0,40.12,6ZM38,22.21h3.64v-11H38Z"/></g><g id="GitHub-2"><path class="cls-3" d="M53.36,37.14a5.52,5.52,0,0,0,.28-1.71,5,5,0,0,0-.52-2.23,4.46,4.46,0,0,0-1.93.4,10.92,10.92,0,0,0-1.93,1.24,11.47,11.47,0,0,0-2.86-.33,13.31,13.31,0,0,0-3.13.41,10.59,10.59,0,0,0-1.92-1.26,4.47,4.47,0,0,0-1.94-.4,5,5,0,0,0-.52,2.23,5.64,5.64,0,0,0,.28,1.73,6,6,0,0,0-1.38,4,7.49,7.49,0,0,0,.62,3.37,4.15,4.15,0,0,0,.87,1.16,4.72,4.72,0,0,0,1.24.83,11.21,11.21,0,0,0,1.4.53,9.05,9.05,0,0,0,1.55.31c.57.06,1.07.11,1.51.13s.92,0,1.44,0h1.71a14.68,14.68,0,0,0,1.75-.22,8.74,8.74,0,0,0,1.73-.49,5.5,5.5,0,0,0,1.44-.94,4.1,4.1,0,0,0,1.08-1.36,7.92,7.92,0,0,0,.62-3.37A6.08,6.08,0,0,0,53.36,37.14Zm-1.23,7.41a2.83,2.83,0,0,1-.83,1.05,3.88,3.88,0,0,1-1.24.61,7.14,7.14,0,0,1-1.43.3c-.5.05-1,.07-1.52.07h-1.7c-.51,0-1,0-1.52-.07a7.14,7.14,0,0,1-1.43-.3,3.88,3.88,0,0,1-1.24-.61,2.83,2.83,0,0,1-.83-1.05A3.5,3.5,0,0,1,40.06,43a3.17,3.17,0,0,1,.71-2.09,2.33,2.33,0,0,1,1.9-.86c.67,0,1.34.11,2,.21a11.43,11.43,0,0,0,3.2,0c1.05-.14,1.71-.21,2-.21a2.33,2.33,0,0,1,1.9.86,3.21,3.21,0,0,1,.7,2.08A3.55,3.55,0,0,1,52.13,44.55Z"/><path class="cls-3" d="M43.74,41.38a1,1,0,0,0-1.41-.07.23.23,0,0,1-.07.07,1.93,1.93,0,0,0-.43.78,2.68,2.68,0,0,0,0,1.68,1.89,1.89,0,0,0,.43.77,1,1,0,0,0,1.41.07l.07-.07a2,2,0,0,0,.44-.77,2.83,2.83,0,0,0,0-1.68A2.08,2.08,0,0,0,43.74,41.38Z"/><path class="cls-3" d="M50.26,41.38a1,1,0,0,0-1.41-.07l-.07.07a2.08,2.08,0,0,0-.44.78,2.83,2.83,0,0,0,0,1.68,2,2,0,0,0,.44.77,1,1,0,0,0,1.41.07l.07-.07a1.89,1.89,0,0,0,.43-.77,2.68,2.68,0,0,0,0-1.68A1.93,1.93,0,0,0,50.26,41.38Z"/></g><path class="cls-3" d="M46.84,58.18a1.39,1.39,0,0,0-1.54,0L38.37,63a1.4,1.4,0,0,0-.58,1.13v5.2a1.36,1.36,0,0,0,.61,1.14l7,4.65a1.34,1.34,0,0,0,1.51,0l7.18-4.74a1.4,1.4,0,0,0,.62-1.14V64.16A1.42,1.42,0,0,0,54.13,63Zm5.36,5.67-2.65,1.77-2.49-1.84V60.22Zm-7-3.58v3.48l-2.55,1.78-2.54-1.7Zm-5.79,5.27,1.65,1.1-1.65,1.15Zm5.84,7.39-5.13-3.44,2.56-1.8,2.57,1.73Zm-1-6.35,1.67-1.16,1.93,1.28L46.2,67.84Zm2.78,6.35V69.42l2.46-1.65,2.64,1.74Zm5.88-5.09-1.75-1.15,1.75-1.17Z"/><path class="cls-3" d="M54.75,87.69a7,7,0,0,1-2,.55,3.5,3.5,0,0,0,1.5-1.92,7.12,7.12,0,0,1-2.22.84,3.48,3.48,0,0,0-5.92,3.18,9.88,9.88,0,0,1-7.18-3.64A3.49,3.49,0,0,0,40,91.35a3.54,3.54,0,0,1-1.58-.44h0a3.49,3.49,0,0,0,2.85,3.45,3.57,3.57,0,0,1-.92.12,3.68,3.68,0,0,1-.66-.06A3.49,3.49,0,0,0,43,96.83a7,7,0,0,1-4.32,1.49c-.27,0-.55,0-.82,0A9.89,9.89,0,0,0,53,90v-.5A7,7,0,0,0,54.75,87.69Z"/><g id="LinkedIn-5"><path id="LinkedIn-6" class="cls-4" d="M84,16v6.28H80.37V16.35c0-1.47-.52-2.47-1.84-2.47a2,2,0,0,0-1.87,1.32,2.7,2.7,0,0,0-.12.89V22.2H72.91v-11h3.63v1.55h0A3.63,3.63,0,0,1,79.83,11C82.18,11,84,12.57,84,16ZM69.11,6a1.89,1.89,0,1,0-.27,3.78h.27A1.9,1.9,0,0,0,69.39,6ZM67.27,22.21H70.9v-11H67.27Z"/></g><g id="GitHub-3"><path class="cls-4" d="M82.62,37.14a5.52,5.52,0,0,0,.28-1.71,4.91,4.91,0,0,0-.52-2.23,4.46,4.46,0,0,0-1.93.4,10.69,10.69,0,0,0-1.9,1.24,11.44,11.44,0,0,0-2.85-.33,12.93,12.93,0,0,0-3.16.36,10.59,10.59,0,0,0-1.92-1.26,4.47,4.47,0,0,0-1.94-.4,5,5,0,0,0-.52,2.23,5.64,5.64,0,0,0,.28,1.73,6,6,0,0,0-1.38,4,7.49,7.49,0,0,0,.62,3.37,4.23,4.23,0,0,0,.88,1.17,4.72,4.72,0,0,0,1.24.83,11.21,11.21,0,0,0,1.4.53,9.05,9.05,0,0,0,1.55.31c.57.06,1.07.11,1.51.13s.92,0,1.45,0h1.7a17.64,17.64,0,0,0,1.78-.21,8.74,8.74,0,0,0,1.73-.49,5.38,5.38,0,0,0,1.39-.91,4.1,4.1,0,0,0,1.08-1.36A7.77,7.77,0,0,0,84,41.16,6.08,6.08,0,0,0,82.62,37.14Zm-1.23,7.41a2.83,2.83,0,0,1-.83,1.05,3.88,3.88,0,0,1-1.24.61,7.14,7.14,0,0,1-1.43.3c-.5.05-1,.07-1.52.07H74.68c-.5,0-1,0-1.48-.06a7.14,7.14,0,0,1-1.43-.3,3.88,3.88,0,0,1-1.24-.61,2.83,2.83,0,0,1-.83-1A3.5,3.5,0,0,1,69.37,43,3.18,3.18,0,0,1,70,40.9a2.33,2.33,0,0,1,1.9-.86c.67,0,1.34.11,2,.21a11.43,11.43,0,0,0,3.2,0c1-.14,1.71-.21,2-.21a2.33,2.33,0,0,1,1.9.86,3.21,3.21,0,0,1,.7,2.08,3.55,3.55,0,0,1-.34,1.57Z"/><path class="cls-4" d="M73,41.38a1,1,0,0,0-1.41-.07l-.06.07a1.84,1.84,0,0,0-.44.78,2.83,2.83,0,0,0,0,1.68,1.8,1.8,0,0,0,.44.77,1,1,0,0,0,1.4.07.23.23,0,0,0,.07-.07,1.8,1.8,0,0,0,.44-.77,2.83,2.83,0,0,0,0-1.68A1.84,1.84,0,0,0,73,41.38Z"/><path class="cls-4" d="M79.53,41.38a1,1,0,0,0-1.41-.07l-.07.07a2.08,2.08,0,0,0-.44.78,2.83,2.83,0,0,0,0,1.68,2,2,0,0,0,.44.77,1,1,0,0,0,1.41.07l.07-.07a2,2,0,0,0,.44-.77,2.83,2.83,0,0,0,0-1.68A2.08,2.08,0,0,0,79.53,41.38Z"/></g><path class="cls-4" d="M76.1,58.18a1.39,1.39,0,0,0-1.54,0L67.63,63a1.4,1.4,0,0,0-.58,1.13v5.2a1.36,1.36,0,0,0,.61,1.14l7,4.65a1.34,1.34,0,0,0,1.51,0l7.18-4.74A1.37,1.37,0,0,0,84,69.24V64.16A1.39,1.39,0,0,0,83.39,63Zm5.36,5.67-2.65,1.77-2.49-1.8V60.26Zm-7-3.58v3.48l-2.55,1.78-2.54-1.7Zm-5.79,5.27,1.65,1.1-1.65,1.15ZM74.52,73l-5.13-3.45L72,67.73l2.57,1.73Zm-1-6.35,1.68-1.21,2,1.28-1.73,1.15ZM76.3,73V69.42l2.46-1.65,2.64,1.74Zm5.88-5.13-1.75-1.15,1.75-1.19Z"/><path class="cls-4" d="M84,87.69a7,7,0,0,1-2,.55,3.51,3.51,0,0,0,1.53-1.92,7.12,7.12,0,0,1-2.22.84,3.48,3.48,0,0,0-5.92,3.18,9.89,9.89,0,0,1-7.19-3.65,3.49,3.49,0,0,0,1.08,4.65,3.54,3.54,0,0,1-1.58-.44h0a3.49,3.49,0,0,0,2.8,3.42,3.57,3.57,0,0,1-.92.12,3.68,3.68,0,0,1-.66-.06,3.48,3.48,0,0,0,3.27,2.45,7,7,0,0,1-4.32,1.49c-.27,0-.55,0-.82,0a9.88,9.88,0,0,0,15.22-8.38v-.45A7.05,7.05,0,0,0,84,87.69Z"/><circle class="cls-5" cx="17" cy="137.9" r="8.48"/><path class="cls-6" d="M25,140.67l-7.25-7.08,1.67,3.92-5,.41-2.57.8,7.46,7.34A8.5,8.5,0,0,0,25,140.67Z"/><polygon class="cls-4" points="22.07 137.9 17.78 133.58 16.66 134.71 19.07 137.1 11.94 137.1 11.94 138.7 19.07 138.7 16.66 141.09 17.78 142.22 22.07 137.9"/><path class="cls-2" d="M25,110.52H9a.52.52,0,0,0-.52.52v11a.52.52,0,0,0,.52.52H25a.51.51,0,0,0,.51-.52V111A.51.51,0,0,0,25,110.52Zm-15.41,1.7,2.49,2.3-2.49,2.34Zm.81-.66H23.64L17,117.72Zm14.08.66v4.64L22,114.52ZM9.56,121.51V118.3l3.24-3.07,3.86,3.56a.52.52,0,0,0,.7,0l3.85-3.56,3.18,3,.07.06v3.23Z"/><path class="cls-2" d="M310,62.21H253.77a1.83,1.83,0,0,0-1.83,1.84v38.8a1.83,1.83,0,0,0,1.83,1.83H310a1.83,1.83,0,0,0,1.83-1.83V64.05A1.82,1.82,0,0,0,310,62.21Zm-54.36,6,8.75,8.1-8.75,8.28Zm2.84-2.36h46.89L281.92,87.56Zm49.69,2.36V84.62l-8.75-8.28ZM255.65,101V89.67l11.44-10.86L280.71,91.4a1.82,1.82,0,0,0,2.48,0l13.54-12.59L307.91,89.4a1.71,1.71,0,0,0,.26.21V101Z"/><path class="cls-3" d="M54.25,110.52h-16a.51.51,0,0,0-.51.52v11a.51.51,0,0,0,.51.52h16a.52.52,0,0,0,.52-.52V111A.52.52,0,0,0,54.25,110.52Zm-15.41,1.7,2.49,2.3-2.49,2.34Zm.81-.66H52.9l-6.63,6.16Zm14.08.66v4.64l-2.48-2.34Zm-14.91,9.29V118.3l3.25-3.07,3.85,3.56a.52.52,0,0,0,.7,0l3.86-3.56,3.17,3,.07.06v3.23Z"/><path class="cls-4" d="M83.49,110.52h-16A.51.51,0,0,0,67,111v11a.51.51,0,0,0,.51.52h16A.52.52,0,0,0,84,122V111A.52.52,0,0,0,83.49,110.52Zm-15.41,1.7,2.49,2.3-2.49,2.34Zm.81-.66H82.18l-6.65,6.16Zm14.08.66v4.64l-2.49-2.34Zm-14.89,9.29V118.3l3.25-3.07,3.87,3.56a.52.52,0,0,0,.7,0l3.86-3.56,3.17,3,.07.06v3.23Z"/><g id="GitHub-4"><path class="cls-4" d="M225.78,28.62c-1,0-3.33.25-7,.76a37.1,37.1,0,0,1-5.67.4,37.1,37.1,0,0,1-5.67-.4,69.16,69.16,0,0,0-7-.76,8.28,8.28,0,0,0-6.74,3,11.21,11.21,0,0,0-2.5,7.37,12.41,12.41,0,0,0,1.16,5.53,10.24,10.24,0,0,0,2.92,3.73,14.21,14.21,0,0,0,4.4,2.16,26.36,26.36,0,0,0,5.05,1.13,50.91,50.91,0,0,0,5.38.31h6.06a50.91,50.91,0,0,0,5.38-.31,26.63,26.63,0,0,0,5.05-1.1,14,14,0,0,0,4.4-2.18,10.25,10.25,0,0,0,2.9-3.69A12.59,12.59,0,0,0,235,39a11.21,11.21,0,0,0-2.5-7.37A8.28,8.28,0,0,0,225.78,28.62Z"/><path class="cls-2" d="M238.19,18.3a19,19,0,0,0,1-6.07,17.35,17.35,0,0,0-1.85-7.87,15.58,15.58,0,0,0-6.82,1.41,37.28,37.28,0,0,0-6.75,4.37A42.53,42.53,0,0,0,213.65,9a47.65,47.65,0,0,0-11.16,1.27,37.93,37.93,0,0,0-6.82-4.46,15.58,15.58,0,0,0-6.85-1.43,17.4,17.4,0,0,0-1.89,7.88,19.4,19.4,0,0,0,1,6.14A21.21,21.21,0,0,0,183,32.67q0,7.52,2.24,12a14.68,14.68,0,0,0,3.1,4.15,16,16,0,0,0,4.37,2.93,37.75,37.75,0,0,0,5,1.85,32.23,32.23,0,0,0,5.5,1.08c2,.23,3.77.38,5.33.45s3.27.1,5.13.11c2.21,0,4.21-.05,6-.16a53.73,53.73,0,0,0,6.19-.8A31,31,0,0,0,232,52.54a19.54,19.54,0,0,0,5.09-3.11,14.35,14.35,0,0,0,3.81-4.8q2.2-4.47,2.21-12A21.45,21.45,0,0,0,238.19,18.3Zm-4.37,26.25a10.24,10.24,0,0,1-2.92,3.73,14.21,14.21,0,0,1-4.4,2.16,26.56,26.56,0,0,1-5.05,1.07,53.67,53.67,0,0,1-5.38.25H210a53.67,53.67,0,0,1-5.38-.25,26.56,26.56,0,0,1-5-1.07,14.21,14.21,0,0,1-4.4-2.16,10.24,10.24,0,0,1-2.92-3.73A12.41,12.41,0,0,1,191.1,39a11.21,11.21,0,0,1,2.5-7.37,8.28,8.28,0,0,1,6.74-3,69.16,69.16,0,0,1,7,.76,37.1,37.1,0,0,0,5.67.4,37.1,37.1,0,0,0,5.67-.4,70.8,70.8,0,0,1,7-.76,8.28,8.28,0,0,1,6.74,3A11.26,11.26,0,0,1,235,39,12.57,12.57,0,0,1,233.82,44.55Z"/><path class="cls-2" d="M204.14,33.31a3.4,3.4,0,0,0-4.79-.45,4.78,4.78,0,0,0-.45.45,7.12,7.12,0,0,0-1.55,2.74,10,10,0,0,0,0,5.92,6.92,6.92,0,0,0,1.55,2.74,3.4,3.4,0,0,0,4.79.45,2.4,2.4,0,0,0,.45-.45A7.06,7.06,0,0,0,205.7,42a10.12,10.12,0,0,0,0-5.92A7.14,7.14,0,0,0,204.14,33.31Z"/><path class="cls-2" d="M227.24,33.31a3.4,3.4,0,0,0-4.79-.45,3.19,3.19,0,0,0-.45.45,7.19,7.19,0,0,0-1.55,2.74,10,10,0,0,0,0,5.92A7,7,0,0,0,222,44.71a3.4,3.4,0,0,0,4.79.45,3.19,3.19,0,0,0,.45-.45A7.09,7.09,0,0,0,228.83,42a10,10,0,0,0,0-5.92A7.24,7.24,0,0,0,227.24,33.31Z"/></g><rect class="cls-2" x="258.76" y="3.99" width="46.89" height="49.88"/><path class="cls-4" d="M283.7,43.43h-8.86a3.65,3.65,0,0,1-2.74-.86,3.88,3.88,0,0,1-.82-2.74V18a3.85,3.85,0,0,1,.84-2.77,3.72,3.72,0,0,1,2.72-.83h9.4a20.63,20.63,0,0,1,3.6.26,7.65,7.65,0,0,1,2.74,1,7.3,7.3,0,0,1,1.81,1.56,7,7,0,0,1,1.21,2.07,7.07,7.07,0,0,1,.42,2.41q0,4.35-4.35,6.37,5.71,1.82,5.71,7.09a8,8,0,0,1-1.24,4.38,7.56,7.56,0,0,1-3.37,2.88,12.13,12.13,0,0,1-3,.78A33.89,33.89,0,0,1,283.7,43.43Zm-6.54-24.59v7.5h5.37a10.83,10.83,0,0,0,3.4-.42,3.24,3.24,0,0,0,1.82-1.59,3.55,3.55,0,0,0,.5-1.85,2.9,2.9,0,0,0-1.56-2.92,11.86,11.86,0,0,0-4.76-.71Zm6.11,11.71h-6.11V39h6.31q6,0,6-4.29a3.5,3.5,0,0,0-1.55-3.18A8.6,8.6,0,0,0,283.27,30.55Z"/><polygon class="cls-7" points="311.14 112.73 230.83 112.73 230.83 148.65 311.14 148.65 301.3 130.69 311.14 112.73"/><polygon class="cls-8" points="230.83 112.73 261.25 122.71 230.83 122.71 230.83 112.73"/><polygon class="cls-7" points="230.83 156.63 310.64 156.63 310.64 192.54 230.83 192.54 240.66 174.59 230.83 156.63"/><polygon class="cls-8" points="310.64 156.63 280.71 166.6 310.64 166.6 310.64 156.63"/><g class="cls-9"><rect class="cls-2" x="109.61" y="-0.08" width="61.21" height="61.22"/></g></svg>
